<?xml version="1.0" encoding="utf-8"?>
<svg xmlns="http://www.w3.org/2000/svg" viewBox="0 0 500 500">
  <circle cx="250.298" cy="249.359" r="225.002" style="stroke: rgb(123, 57, 236); paint-order: fill; fill: none; stroke-width: 14px;"/>
  <path d="M 251.129 118.625 L 251.915 118.617 C 257.37 118.607 262.142 120.688 266.059 124.461 C 271.046 129.544 271.684 135.887 272.254 142.648 L 272.368 143.956 C 272.458 145.119 272.561 146.282 272.664 147.445 C 272.72 148.174 272.778 148.904 272.846 149.637 C 273.415 156.43 273.974 163.223 274.508 170.019 C 274.918 175.092 275.34 180.162 275.773 185.23 C 276.308 191.336 276.809 197.441 277.299 203.552 C 277.458 205.502 277.606 207.453 277.765 209.404 C 278.084 213.382 278.403 217.359 278.733 221.335 L 278.767 221.814 C 279.223 227.327 279.689 232.839 280.157 238.35 C 280.339 240.504 280.521 242.657 280.704 244.814 L 280.75 245.362 L 280.977 248.114 C 281.728 256.987 282.479 265.86 283.174 274.738 C 283.243 275.546 283.312 276.354 283.368 277.162 L 283.414 277.631 C 283.721 281.524 284.051 285.415 284.392 289.307 C 284.928 295.477 285.429 301.649 285.92 307.822 C 286.409 313.892 286.91 319.961 287.434 326.027 C 287.969 332.189 288.47 338.35 288.959 344.511 C 289.039 345.547 289.119 346.584 289.199 347.62 C 289.381 349.875 289.563 352.129 289.79 354.372 C 289.95 355.99 289.974 357.583 289.928 359.201 L 290.395 359.201 L 290.417 358.608 C 290.589 356.092 290.873 353.609 291.328 351.139 C 291.703 349.031 292.023 346.925 292.308 344.806 C 292.387 344.215 292.466 343.622 292.547 343.029 C 292.718 341.778 292.888 340.525 293.047 339.273 C 293.253 337.815 293.447 336.357 293.652 334.887 C 293.72 334.318 293.799 333.749 293.88 333.169 C 294.13 331.289 294.425 329.41 294.767 327.541 C 295.074 325.81 295.314 324.072 295.542 322.331 C 295.621 321.738 295.701 321.147 295.792 320.556 C 295.963 319.302 296.123 318.045 296.294 316.79 C 296.499 315.333 296.692 313.874 296.885 312.417 C 296.965 311.842 297.045 311.267 297.124 310.694 C 297.375 308.801 297.672 306.919 298.014 305.04 C 298.309 303.418 298.526 301.787 298.753 300.154 C 298.821 299.616 298.89 299.079 298.97 298.543 C 299.117 297.404 299.278 296.264 299.425 295.124 C 299.607 293.8 299.777 292.476 299.961 291.152 C 300.029 290.633 300.097 290.112 300.165 289.59 C 300.392 287.96 300.632 286.338 300.928 284.719 C 301.271 282.818 301.543 280.912 301.805 278.999 C 301.885 278.406 301.964 277.816 302.044 277.224 C 302.215 275.969 302.385 274.715 302.557 273.459 C 302.751 272.001 302.944 270.542 303.149 269.085 C 303.229 268.509 303.298 267.935 303.376 267.362 C 303.639 265.469 303.923 263.588 304.264 261.708 C 304.562 260.086 304.789 258.456 305.005 256.823 C 305.073 256.284 305.154 255.748 305.222 255.211 C 305.381 254.072 305.529 252.931 305.688 251.793 C 305.86 250.469 306.042 249.144 306.212 247.82 C 306.291 247.3 306.359 246.78 306.428 246.26 C 306.645 244.627 306.896 243.006 307.192 241.387 C 307.533 239.487 307.807 237.582 308.057 235.666 C 308.137 235.075 308.216 234.483 308.296 233.892 C 308.467 232.638 308.638 231.382 308.809 230.127 C 309.001 228.669 309.207 227.211 309.401 225.754 C 309.48 225.178 309.56 224.603 309.64 224.029 C 309.902 222.078 310.198 220.139 310.551 218.204 C 310.756 217.071 310.892 215.95 310.984 214.804 C 311.36 210.932 312.931 207.617 315.414 204.637 L 315.949 203.96 C 318.317 201.136 322.076 199.049 325.606 198.149 L 326.323 197.955 C 331.607 196.647 337.165 197.694 341.88 200.378 C 345.159 202.363 347.607 205.203 349.349 208.591 L 349.566 209.022 C 350.966 211.892 351.32 215.35 351.946 218.453 L 352.253 220 C 352.47 221.082 352.697 222.165 352.913 223.245 C 353.187 224.605 353.46 225.965 353.734 227.324 C 354.792 232.553 355.841 237.783 356.819 243.026 C 357.423 246.29 358.095 249.539 358.778 252.789 C 358.926 253.514 359.075 254.239 359.222 254.965 L 359.359 255.621 L 359.485 256.227 L 359.598 256.754 C 359.679 257.237 359.679 257.237 359.679 258.164 L 360.19 258.162 C 364.336 258.137 368.482 258.117 372.637 258.106 C 374.642 258.099 376.646 258.091 378.662 258.078 C 380.404 258.066 382.157 258.059 383.911 258.057 C 384.833 258.055 385.756 258.051 386.678 258.043 C 387.555 258.035 388.432 258.033 389.309 258.034 C 389.776 258.033 390.244 258.027 390.71 258.02 C 393.91 258.039 396.723 258.88 399.046 261.141 C 400.036 262.201 400.651 263.287 401.153 264.653 L 401.402 265.282 C 401.666 266.241 401.688 267.111 401.676 268.1 L 401.676 268.636 C 401.676 270.414 401.3 271.905 400.481 273.501 L 400.138 274.193 C 399.512 275.283 398.818 276.099 397.794 276.833 L 397.258 277.224 C 394.947 278.478 392.703 278.693 390.117 278.677 C 389.765 278.678 389.412 278.68 389.059 278.681 C 388.102 278.686 387.146 278.684 386.189 278.681 C 385.187 278.679 384.173 278.681 383.172 278.682 C 381.486 278.684 379.789 278.682 378.103 278.678 C 376.156 278.672 374.209 278.675 372.261 278.679 C 370.588 278.683 368.913 278.683 367.228 278.681 C 366.237 278.68 365.235 278.68 364.233 278.683 C 363.3 278.686 362.355 278.683 361.42 278.678 C 361.079 278.677 360.726 278.678 360.384 278.68 C 357.219 278.697 354.007 278.221 351.138 276.775 L 350.647 276.533 C 345.786 274.068 342.197 269.811 340.444 264.668 C 339.897 262.936 339.487 261.213 339.158 259.43 L 338.998 258.618 C 338.896 258.051 338.782 257.482 338.679 256.914 C 338.395 255.427 338.121 253.94 337.836 252.452 L 337.665 251.568 C 337.245 249.341 336.8 247.118 336.322 244.899 C 335.753 242.133 335.218 239.358 334.693 236.58 C 334.033 233.016 333.304 229.464 332.564 225.914 L 332.312 224.681 L 332.188 224.091 C 331.927 222.789 331.687 221.479 331.493 220.164 C 331.448 219.701 331.448 219.701 331.174 219.467 C 330.685 222.724 330.195 225.981 329.786 229.252 C 329.66 230.279 329.512 231.296 329.319 232.315 C 329.08 233.627 328.897 234.943 328.737 236.266 C 328.556 237.803 328.327 239.32 328.043 240.841 C 327.849 241.936 327.712 243.041 327.575 244.147 C 327.394 245.698 327.166 247.232 326.87 248.77 C 326.733 249.583 326.631 250.393 326.539 251.214 C 326.415 252.248 326.277 253.266 326.084 254.29 C 325.834 255.616 325.662 256.944 325.492 258.28 C 325.309 259.816 325.082 261.333 324.797 262.855 C 324.604 263.95 324.467 265.054 324.342 266.159 C 324.148 267.697 323.921 269.216 323.635 270.74 C 323.453 271.801 323.316 272.867 323.192 273.936 C 322.964 275.762 322.691 277.583 322.383 279.397 C 322.132 280.817 321.95 282.237 321.791 283.668 C 321.7 284.381 321.586 285.09 321.449 285.798 C 321.199 287.125 321.027 288.456 320.857 289.793 C 320.664 291.348 320.447 292.882 320.151 294.419 C 320.015 295.23 319.912 296.043 319.821 296.863 C 319.695 297.897 319.547 298.915 319.366 299.94 C 319.115 301.264 318.944 302.593 318.773 303.93 C 318.591 305.465 318.363 306.983 318.078 308.503 C 317.885 309.6 317.748 310.703 317.612 311.807 C 317.429 313.344 317.202 314.861 316.917 316.382 C 316.723 317.478 316.598 318.582 316.462 319.686 C 316.268 321.225 316.04 322.744 315.755 324.267 C 315.573 325.327 315.448 326.395 315.312 327.464 C 315.083 329.286 314.81 331.107 314.503 332.928 C 314.251 334.34 314.081 335.764 313.91 337.2 C 313.82 337.906 313.705 338.624 313.568 339.329 C 313.319 340.651 313.148 341.983 312.977 343.327 C 312.794 344.874 312.567 346.412 312.27 347.95 C 312.134 348.758 312.031 349.567 311.941 350.386 C 311.815 351.434 311.678 352.448 311.485 353.473 C 311.246 354.748 311.074 356.024 310.926 357.31 C 310.016 364.394 308.364 370.6 302.762 375.474 C 298.297 378.901 292.968 380.349 287.376 379.824 C 281.911 379.095 276.979 376.169 273.632 371.808 C 271.456 368.824 270.226 365.328 269.884 361.683 L 269.794 360.829 C 269.463 357.447 269.201 354.053 268.928 350.66 C 268.758 348.463 268.587 346.252 268.416 344.055 L 268.359 343.337 C 268.007 339.078 267.664 334.819 267.3 330.561 L 267.255 330.093 C 267.072 327.986 266.901 325.895 266.719 323.797 C 266.469 320.856 266.218 317.914 265.968 314.973 L 265.934 314.492 C 265.443 308.694 264.965 302.896 264.51 297.096 C 263.849 288.848 263.154 280.602 262.449 272.358 C 262.232 269.761 262.005 267.165 261.788 264.567 L 261.754 264.094 C 261.288 258.652 260.844 253.211 260.41 247.766 L 260.364 247.245 L 260.057 243.264 C 259.795 239.98 259.522 236.697 259.248 233.414 L 259.18 232.592 C 258.885 229.013 258.577 225.433 258.27 221.856 C 258.076 219.563 257.882 217.271 257.688 214.979 C 257.097 208.071 256.526 201.164 255.97 194.253 C 255.172 184.114 254.306 173.982 253.441 163.849 L 253.053 159.291 L 252.985 158.406 L 252.838 156.666 C 252.69 154.987 252.552 153.308 252.404 151.629 C 252.313 150.594 252.234 149.561 252.143 148.525 C 252.097 148.05 252.063 147.572 252.018 147.098 C 251.96 146.449 251.903 145.798 251.847 145.15 L 251.801 144.588 C 251.687 143.284 251.676 141.99 251.687 140.682 L 251.232 140.682 L 251.198 141.358 C 251.072 143.981 250.787 146.571 250.445 149.176 C 250.286 150.425 250.138 151.674 249.979 152.922 L 249.888 153.695 C 249.569 156.274 249.284 158.852 249 161.436 C 248.647 164.625 248.282 167.806 247.871 170.989 C 247.542 173.585 247.257 176.185 246.973 178.786 C 246.563 182.458 246.142 186.125 245.686 189.792 C 245.173 193.854 244.707 197.918 244.263 201.987 C 243.853 205.761 243.42 209.531 242.93 213.297 C 242.463 216.964 242.054 220.635 241.655 224.311 C 241.211 228.347 240.732 232.378 240.231 236.406 C 239.787 240.057 239.366 243.712 238.955 247.37 C 238.636 250.337 238.284 253.301 237.908 256.262 C 237.577 258.858 237.293 261.458 237.008 264.06 C 236.598 267.731 236.177 271.401 235.721 275.066 C 235.22 279.045 234.765 283.027 234.321 287.014 C 233.786 292.01 233.181 296.998 232.566 301.986 L 232.373 303.534 L 232.271 304.293 C 232.112 305.622 231.951 306.952 231.815 308.283 L 231.724 309.129 C 231.679 309.659 231.622 310.189 231.566 310.718 C 231.018 315.996 228.786 320.685 225.04 324.437 L 224.618 324.875 C 222.489 326.885 219.688 328.18 216.932 329.068 L 216.249 329.296 C 210.975 330.766 205.191 329.603 200.51 326.975 C 199.326 326.232 198.278 325.367 197.241 324.437 L 196.797 324.066 C 192.949 320.568 191.468 315.304 190.717 310.346 L 190.591 309.505 C 190.455 308.622 190.318 307.737 190.182 306.856 C 190.01 305.698 189.828 304.539 189.647 303.382 L 189.521 302.524 C 189.259 300.867 188.964 299.215 188.644 297.57 C 188.337 296.008 188.075 294.436 187.87 292.856 C 187.597 290.747 187.266 288.65 186.925 286.551 L 186.845 286.072 C 186.673 285.087 186.515 284.106 186.344 283.121 C 186.127 281.815 185.9 280.51 185.683 279.203 L 185.524 278.229 C 185.022 275.278 184.544 272.325 184.065 269.372 C 183.816 267.772 183.554 266.173 183.292 264.575 L 183.167 263.827 L 182.801 261.553 L 182.256 258.251 L 182.118 257.417 C 181.811 255.497 181.492 253.576 181.185 251.657 L 180.809 249.334 L 180.57 247.865 C 180.457 247.186 180.343 246.507 180.24 245.828 L 180.137 245.235 C 179.989 244.287 179.818 243.345 179.626 242.405 C 179.396 241.284 179.238 240.161 179.101 239.025 C 178.816 236.864 178.475 234.711 178.11 232.561 L 178.03 232.08 C 177.871 231.098 177.701 230.114 177.541 229.13 C 177.313 227.825 177.097 226.518 176.881 225.213 L 176.72 224.237 C 176.174 221.008 175.651 217.776 175.127 214.543 C 174.773 212.3 174.41 210.058 174.034 207.814 L 173.771 206.155 C 173.635 205.333 173.498 204.513 173.361 203.692 L 173.248 202.952 C 173.066 201.875 172.884 200.804 172.666 199.736 C 172.439 198.634 172.291 197.532 172.154 196.416 C 171.7 192.956 171.095 189.516 170.514 186.074 C 170.366 185.185 170.219 184.299 170.07 183.408 C 169.786 181.679 169.489 179.95 169.194 178.221 C 168.374 184.65 167.634 191.09 166.962 197.534 C 166.45 202.426 165.914 207.313 165.345 212.198 C 164.832 216.632 164.343 221.07 163.887 225.512 C 163.534 228.918 163.159 232.322 162.759 235.723 C 162.396 238.763 162.064 241.808 161.757 244.854 C 161.347 248.813 160.938 252.771 160.482 256.724 C 160.425 257.222 160.369 257.722 160.311 258.222 C 159.628 264.563 157.613 269.981 152.613 274.193 C 148.274 277.472 143.629 278.672 138.264 278.647 C 137.012 278.653 135.76 278.654 134.496 278.65 C 133.537 278.648 132.571 278.65 131.614 278.65 C 129.997 278.653 128.38 278.65 126.774 278.647 C 124.906 278.644 123.051 278.645 121.182 278.648 C 119.576 278.652 117.971 278.653 116.365 278.65 C 115.409 278.649 114.453 278.649 113.507 278.652 C 112.607 278.654 111.707 278.652 110.808 278.648 C 110.478 278.647 110.148 278.647 109.829 278.649 C 106.674 278.662 103.85 278.202 101.47 275.982 C 99.215 273.556 98.418 270.783 98.464 267.492 C 98.68 264.957 99.739 262.468 101.573 260.692 C 104.305 258.473 106.879 258.093 110.33 258.112 C 111.526 258.111 112.721 258.112 113.905 258.118 C 114.817 258.122 115.728 258.122 116.639 258.122 C 118.358 258.124 120.078 258.127 121.798 258.131 C 123.756 258.138 125.727 258.14 127.685 258.142 C 131.717 258.146 135.736 258.155 139.768 258.164 L 139.836 257.359 C 140.199 253.188 140.667 249.03 141.134 244.869 C 141.248 243.803 141.373 242.736 141.487 241.671 C 141.693 239.875 141.885 238.081 142.09 236.288 C 142.319 234.243 142.546 232.197 142.763 230.151 C 142.991 228.154 143.218 226.157 143.434 224.161 L 143.72 221.654 C 144.219 217.038 144.755 212.425 145.302 207.814 C 145.723 204.351 146.122 200.885 146.498 197.416 C 146.634 196.173 146.771 194.932 146.907 193.69 L 146.965 193.204 C 147.193 191.08 147.432 188.956 147.671 186.831 C 147.83 185.369 147.989 183.909 148.149 182.446 C 148.228 181.684 148.32 180.919 148.399 180.154 C 149.208 172.735 150.609 166.525 156.405 161.429 C 158.934 159.43 161.837 157.914 165.026 157.367 L 165.755 157.237 C 171.836 156.53 177.438 157.786 182.324 161.579 C 187.972 166.401 189.111 172.76 190.193 179.753 C 190.42 181.228 190.659 182.704 190.888 184.177 L 191.025 185.084 C 191.479 187.933 191.935 190.783 192.403 193.631 L 192.516 194.336 C 193.074 197.724 193.643 201.109 194.224 204.492 C 195.238 210.404 196.217 216.324 197.105 222.256 C 197.539 225.08 198.028 227.894 198.517 230.709 C 198.802 232.363 199.087 234.014 199.326 235.677 C 199.61 237.813 199.997 239.936 200.363 242.059 C 200.783 244.438 201.182 246.812 201.513 249.202 C 201.786 251.075 202.128 252.94 202.446 254.805 C 202.868 257.183 203.266 259.556 203.596 261.947 C 203.869 263.82 204.211 265.684 204.53 267.549 C 204.952 269.927 205.349 272.301 205.691 274.692 C 205.964 276.564 206.296 278.429 206.625 280.294 C 207.035 282.671 207.446 285.046 207.776 287.436 C 208.049 289.31 208.379 291.173 208.709 293.039 C 209.119 295.441 209.541 297.838 209.871 300.254 C 210.076 301.705 210.338 303.15 210.589 304.597 L 210.747 305.523 C 210.885 306.267 211.01 307.009 211.135 307.752 C 211.408 307.217 211.443 306.823 211.5 306.225 L 211.568 305.52 L 211.648 304.727 C 211.977 301.52 212.365 298.323 212.764 295.124 C 213.321 290.668 213.321 290.668 213.811 286.204 C 214.096 283.35 214.449 280.504 214.802 277.658 C 215.314 273.515 215.804 269.37 216.249 265.217 C 216.669 261.356 217.125 257.499 217.615 253.646 C 217.978 250.769 218.31 247.891 218.605 245.006 C 218.925 242.008 219.288 239.019 219.676 236.029 C 220.029 233.254 220.348 230.475 220.644 227.694 C 220.974 224.519 221.349 221.351 221.76 218.187 C 222.113 215.411 222.432 212.633 222.728 209.851 C 223.058 206.676 223.434 203.509 223.843 200.345 C 224.197 197.569 224.516 194.79 224.812 192.009 C 225.142 188.832 225.529 185.667 225.928 182.503 C 226.281 179.727 226.611 176.948 226.897 174.168 C 227.226 170.991 227.614 167.824 228.011 164.66 C 228.365 161.884 228.695 159.106 228.98 156.325 C 229.402 152.322 229.902 148.334 230.403 144.345 C 230.608 142.725 230.803 141.103 230.995 139.48 C 231.098 138.644 231.2 137.81 231.302 136.973 L 231.359 136.493 C 231.975 131.466 234.355 126.609 238.25 123.302 C 242.144 120.316 246.198 118.629 251.129 118.625 Z" style="fill: rgb(123, 57, 236);"/>
</svg>